Coordinates
version=1
nRows=14
nColumns=24
inDegrees=yes

Units are S.I. units (second, meters, Newtons, ...)
Angles are in degrees.

endheader
time	pelvis_tilt	pelvis_list	pelvis_rotation	pelvis_tx	pelvis_ty	pelvis_tz	hip_flexion_r	hip_adduction_r	hip_rotation_r	knee_angle_r	ankle_angle_r	subtalar_angle_r	mtp_angle_r	hip_flexion_l	hip_adduction_l	hip_rotation_l	knee_angle_l	ankle_angle_l	subtalar_angle_l	mtp_angle_l	lumbar_extension	lumbar_bending	lumbar_rotation
      1.41633333	     -0.60815316	      3.82249174	     -4.41797549	      0.48216146	      1.01654182	      0.35020293	     22.04087519	     -1.84064345	      3.74631134	    -25.47197553	      5.13071152	    -14.40320089	      2.72418671	    -11.80751823	     10.44181445	      1.03990714	      0.99790596	      2.54386137	    -11.32976062	     -2.65743836	    -11.28568143	      3.17493119	     -6.72729955
      1.42050000	     -0.80243881	      3.84884184	     -4.40883113	      0.48716511	      1.01604629	      0.35023608	     22.17365470	     -1.80262272	      3.63919496	    -23.79135737	      4.87122854	    -13.99339309	      2.74100397	    -11.96478838	     10.46133635	      0.91828181	      1.13788993	      2.42243676	    -11.16201810	     -2.60756467	    -11.07427928	      3.17528591	     -6.72301442
      1.42466667	     -0.94565374	      3.84894009	     -4.40728126	      0.49216670	      1.01560631	      0.35031125	     22.20854204	     -1.72589303	      3.58604960	    -22.05331435	      4.55159547	    -13.72483700	      2.79885075	    -12.15554414	     10.45429252	      0.76318716	      1.22719140	      2.39409913	    -10.87290114	     -2.47929882	    -10.95590606	      3.22681275	     -6.77909847
      1.42883333	     -1.12961544	      3.89836962	     -4.39874965	      0.49720492	      1.01505092	      0.35033998	     22.31846240	     -1.71260749	      3.44463465	    -20.40403739	      4.27057727	    -13.27431598	      2.82941303	    -12.30367106	     10.50000217	      0.66332312	      1.32542427	      2.28229287	    -10.72422985	     -2.42556963	    -10.75339625	      3.19258529	     -6.77357844
      1.43300000	     -1.27800135	      3.90826503	     -4.38328714	      0.50227010	      1.01453679	      0.35039188	     22.34379440	     -1.65110237	      3.33926889	    -18.70699697	      3.94537092	    -12.94038124	      2.92765906	    -12.46990151	     10.50116145	      0.53932199	      1.36734886	      2.26414962	    -10.46112010	     -2.27328972	    -10.62421513	      3.24518038	     -6.83730132
      1.43716667	     -1.43485505	      3.97190016	     -4.37539271	      0.50735087	      1.01395413	      0.35042252	     22.41886179	     -1.65007569	      3.17237450	    -17.12038574	      3.65336236	    -12.44381365	      2.96805524	    -12.62900943	     10.56421394	      0.46346101	      1.42572769	      2.15555103	    -10.33339104	     -2.21787651	    -10.45035745	      3.19843063	     -6.82788022
      1.44133333	     -1.56932997	      4.00574757	     -4.35811798	      0.51248520	      1.01337487	      0.35044166	     22.44614712	     -1.61905606	      2.99095001	    -15.54469924	      3.37883480	    -11.97098180	      3.02615413	    -12.80397119	     10.59542245	      0.38825837	      1.45244961	      2.09525970	    -10.19087593	     -2.14264959	    -10.31463639	      3.20068145	     -6.84166127
      1.44550000	     -1.62715904	      4.03204424	     -4.34776593	      0.51763217	      1.01288035	      0.35049445	     22.37400255	     -1.57688663	      2.84587793	    -13.98443557	      3.10409102	    -11.55604302	      3.24599720	    -13.04723026	     10.62059679	      0.27252399	      1.44794600	      2.10720163	     -9.89470157	     -1.87238223	    -10.28179171	      3.21816041	     -6.95420290
      1.44966667	     -1.78519844	      4.09736732	     -4.32360295	      0.52279843	      1.01221298	      0.35051319	     22.44414706	     -1.57036455	      2.65494680	    -12.54848539	      2.88415176	    -11.04009059	      3.30645584	    -13.16552084	     10.68133321	      0.23642729	      1.41069699	      2.02181577	     -9.82548024	     -1.80184803	    -10.10812823	      3.17889363	     -6.92329520
      1.45383333	     -1.89107066	      4.15225034	     -4.29739246	      0.52800169	      1.01158436	      0.35051251	     22.45639930	     -1.55734401	      2.45082331	    -11.17556278	      2.70679313	    -10.51296134	      3.38664244	    -13.33614732	     10.73481135	      0.20978839	      1.35852534	      1.97414393	     -9.73050150	     -1.70866620	     -9.99653147	      3.15443216	     -6.93297514
      1.45800000	     -1.93311446	      4.19443942	     -4.26889322	      0.53322813	      1.01103144	      0.35053723	     22.39277941	     -1.53315995	      2.25039328	     -9.85182690	      2.52297053	    -10.03439206	      6.31586194	    -13.55422680	     10.77238528	      0.11060853	      1.26472684	      1.91128507	     -9.48890737	      1.72412381	     -9.98709215	      3.14220004	     -6.95754484
      1.46216667	     -2.04953248	      4.24724028	     -4.24980937	      0.53848676	      1.01034765	      0.35054621	     22.42903214	     -1.50546404	      2.08146991	     -8.64129815	      2.40557786	     -9.49911818	      6.33042473	    -13.69291668	     10.82441898	      0.11208805	      1.16434453	      1.86517021	     -9.47337109	      1.73265030	     -9.85078691	      3.12928235	     -6.97750821
      1.46633333	     -2.07687460	      4.28200697	     -4.20982338	      0.54376604	      1.00979149	      0.35052457	     22.36969438	     -1.47608406	      1.87386114	     -7.51703630	      2.39492108	     -8.90038606	      6.36858590	    -13.91666055	     10.85644728	      0.13443906	      1.03357673	      1.83619020	     -9.39621040	      1.76921176	     -9.84540541	      3.14739163	     -7.04424801
      1.47050000	     -2.17792781	      4.34003611	     -4.19288959	      0.54905317	      1.00910488	      0.35056045	     22.39995661	     -1.44527189	      1.77782807	     -6.47297089	      2.32375485	     -8.42471694	      6.38816085	    -14.04744184	     10.91182012	      0.15991107	      0.88124178	      1.80576551	     -9.35351176	      1.79186161	     -9.73849456	      3.11524544	     -7.04182345
